<svg width="50" height="41" viewBox="0 0 50 41" fill="none" xmlns="http://www.w3.org/2000/svg">
<g id="&#240;&#159;&#166;&#134; icon &#34;User Cog&#34;">
<path id="Vector" d="M47.7003 29.1671C47.9035 28.0655 47.9035 26.9403 47.7003 25.8387L49.7162 24.6745C49.9506 24.5417 50.0522 24.2682 49.974 24.0103C49.4505 22.3227 48.552 20.7913 47.38 19.5255C47.2003 19.3302 46.9112 19.2833 46.6768 19.4161L44.661 20.5803C43.8093 19.8537 42.8326 19.2911 41.7778 18.9161V16.5877C41.7778 16.322 41.5903 16.0876 41.3325 16.0329C39.5901 15.6423 37.8165 15.6579 36.1601 16.0329C35.9022 16.0876 35.7147 16.322 35.7147 16.5877V18.9161C34.6599 19.2911 33.6832 19.8537 32.8316 20.5803L30.8158 19.4161C30.5892 19.2833 30.2923 19.3302 30.1126 19.5255C28.9406 20.7913 28.042 22.3227 27.5185 24.0103C27.4404 24.2682 27.5498 24.5417 27.7764 24.6745L29.7922 25.8387C29.5891 26.9403 29.5891 28.0655 29.7922 29.1671L27.7764 30.3313C27.542 30.4642 27.4404 30.7376 27.5185 30.9955C28.042 32.6831 28.9406 34.2067 30.1126 35.4803C30.2923 35.6756 30.5814 35.7225 30.8158 35.5897L32.8316 34.4255C33.6832 35.1521 34.6599 35.7147 35.7147 36.0897V38.4181C35.7147 38.6838 35.9022 38.9182 36.1601 38.9729C37.9024 39.3635 39.6761 39.3479 41.3325 38.9729C41.5903 38.9182 41.7778 38.6838 41.7778 38.4181V36.0897C42.8326 35.7147 43.8093 35.1521 44.661 34.4255L46.6768 35.5897C46.9034 35.7225 47.2003 35.6756 47.38 35.4803C48.552 34.2145 49.4505 32.6831 49.974 30.9955C50.0522 30.7376 49.9428 30.4642 49.7162 30.3313L47.7003 29.1671ZM38.7541 31.2924C36.6601 31.2924 34.9646 29.5891 34.9646 27.5029C34.9646 25.4167 36.6679 23.7134 38.7541 23.7134C40.8402 23.7134 42.5435 25.4167 42.5435 27.5029C42.5435 29.5891 40.8481 31.2924 38.7541 31.2924ZM17.5018 20.0021C23.0259 20.0021 27.5029 15.5251 27.5029 10.0011C27.5029 4.47704 23.0259 0 17.5018 0C11.9778 0 7.50079 4.47704 7.50079 10.0011C7.50079 15.5251 11.9778 20.0021 17.5018 20.0021ZM33.2223 37.6993C33.0425 37.6055 32.8628 37.4961 32.6909 37.3946L32.0737 37.754C31.6049 38.0196 31.0736 38.1681 30.5423 38.1681C29.6906 38.1681 28.8702 37.8087 28.2842 37.1836C26.8544 35.6366 25.7605 33.7536 25.1433 31.7455C24.7135 30.3626 25.2917 28.9015 26.5419 28.1748L27.1591 27.8154C27.1513 27.6123 27.1513 27.4091 27.1591 27.206L26.5419 26.8466C25.2917 26.1278 24.7135 24.6588 25.1433 23.2759C25.2136 23.0493 25.3152 22.8227 25.3933 22.5961C25.0964 22.5727 24.8073 22.5024 24.5026 22.5024H23.1978C21.4632 23.2993 19.5333 23.7525 17.5018 23.7525C15.4704 23.7525 13.5483 23.2993 11.8059 22.5024H10.5011C4.70362 22.5024 0 27.206 0 33.0035V36.2538C0 38.3244 1.67986 40.0042 3.7504 40.0042H31.2533C32.0424 40.0042 32.7769 39.7542 33.3785 39.3401C33.2848 39.0432 33.2223 38.7385 33.2223 38.4181V37.6993Z" fill="white"/>
</g>
</svg>
