<svg xmlns="http://www.w3.org/2000/svg" viewBox="0 0 512 512"><title>Monitor</title><g id="Monitor"><g id="Monitor-2" data-name="Monitor"><path d="M354.2128,179.4971H157.7834a3.2935,3.2935,0,0,0-3.2957,3.2909V304.7848a3.3,3.3,0,0,0,3.2957,3.2957H354.2128a3.3,3.3,0,0,0,3.2995-3.2957V182.788A3.3023,3.3023,0,0,0,354.2128,179.4971Z"/><path d="M255.9952,61.6773c-107.32,0-194.32,87.0048-194.32,194.32s87,194.3251,194.32,194.3251,194.33-87.01,194.33-194.3251S363.3155,61.6773,255.9952,61.6773ZM380.5936,304.79a26.3815,26.3815,0,0,1-26.3808,26.377H287.2941v21.13h30.2534a10.0805,10.0805,0,0,1,0,20.161H194.4534a10.0805,10.0805,0,0,1,0-20.161h30.2583v-21.13H157.7834a26.3773,26.3773,0,0,1-26.3722-26.377V182.788a26.3754,26.3754,0,0,1,26.3722-26.3712H354.2128a26.38,26.38,0,0,1,26.3808,26.3712Z"/></g></g></svg>